<svg xmlns="http://www.w3.org/2000/svg" xmlns:xlink="http://www.w3.org/1999/xlink"><defs><symbol viewBox="0 0 32 32" id="chain"><path d="M21.75 4a6.25 6.25 0 0 0-4.438 1.844l-1.468 1.468A6.257 6.257 0 0 0 14 11.75c0 .794.152 1.565.438 2.281l1.624-1.625A4.282 4.282 0 0 1 17.25 8.72l1.469-1.469A4.271 4.271 0 0 1 21.75 6c1.137 0 2.196.445 3 1.25a4.275 4.275 0 0 1 0 6.031l-1.469 1.469A4.277 4.277 0 0 1 20.25 16c-.224 0-.441-.024-.656-.063l-1.625 1.626A6.164 6.164 0 0 0 20.25 18a6.25 6.25 0 0 0 4.438-1.844l1.468-1.468A6.257 6.257 0 0 0 28 10.25c0-1.671-.662-3.224-1.844-4.406A6.18 6.18 0 0 0 21.75 4zm-2.469 7.281l-8 8 1.438 1.438 8-8-1.438-1.438zM11.75 14c-1.671 0-3.257.66-4.438 1.844l-1.468 1.469A6.257 6.257 0 0 0 4 21.75c0 1.671.662 3.224 1.844 4.406A6.18 6.18 0 0 0 10.25 28c1.671 0 3.257-.66 4.438-1.844l1.468-1.468A6.257 6.257 0 0 0 18 20.25a6.16 6.16 0 0 0-.438-2.281l-1.625 1.625a4.282 4.282 0 0 1-1.187 3.687l-1.469 1.469A4.271 4.271 0 0 1 10.25 26a4.205 4.205 0 0 1-3-1.25 4.275 4.275 0 0 1 0-6.031l1.469-1.469A4.277 4.277 0 0 1 11.75 16c.224 0 .441.024.656.063l1.625-1.625A6.164 6.164 0 0 0 11.75 14z" /></symbol><symbol viewBox="0 0 32 32" id="comments"><path d="M2 5v16h4v5.094l1.625-1.313L12.344 21H22V5H2zm2 2h16v12h-8.344l-.281.219L8 21.906V19H4V7zm20 2v2h4v12h-4v2.906L20.344 23h-7.5l-2.5 2h9.312L26 30.094V25h4V9h-6z" /></symbol><symbol viewBox="0 0 32 32" id="refresh"><path d="M16 4c-5.111 0-9.383 3.161-11.125 7.625l1.844.75C8.177 8.639 11.71 6 16 6c3.24 0 6.134 1.59 7.938 4H20v2h7V5h-2v3.094A11.93 11.93 0 0 0 16 4zm9.281 15.625C23.823 23.361 20.29 26 16 26c-3.276 0-6.157-1.612-7.969-4H12v-2H5v7h2v-3.094C9.189 26.386 12.395 28 16 28c5.111 0 9.383-3.161 11.125-7.625l-1.844-.75z" /></symbol><symbol viewBox="0 0 32 32" id="unlock-alt"><path d="M16 3c-3.036 0-5.584 1.966-6.625 4.625l1.844.75C11.979 6.435 13.836 5 16 5c2.755 0 5 2.245 5 5v1.375C19.525 10.515 17.826 10 16 10c-5.511 0-10 4.489-10 10s4.489 10 10 10 10-4.489 10-10a9.968 9.968 0 0 0-3-7.125V10c0-3.845-3.155-7-7-7zm0 9c4.43 0 8 3.57 8 8s-3.57 8-8 8-8-3.57-8-8 3.57-8 8-8zm0 6a2 2 0 0 0-2 2c0 .74.403 1.373 1 1.719V25h2v-3.281c.597-.346 1-.98 1-1.719a2 2 0 0 0-2-2z" /></symbol></defs></svg>